<svg viewBox="0 0 12 12" xmlns="http://www.w3.org/2000/svg" fill-rule="evenodd" clip-rule="evenodd" stroke-linejoin="round" stroke-miterlimit="2"><path d="M0 6c0 3.312 2.688 6 6 6s6-2.688 6-6-2.688-6-6-6-6 2.688-6 6zm6.846 4.8H5.244V9.642c-1.026-.216-1.896-.876-1.962-2.04h1.176c.06.63.492 1.122 1.59 1.122 1.176 0 1.44-.588 1.44-.954 0-.498-.264-.966-1.602-1.284-1.488-.36-2.508-.972-2.508-2.202 0-1.032.834-1.704 1.866-1.926V1.2h1.602v1.17c1.116.27 1.674 1.116 1.71 2.034H7.38c-.03-.666-.384-1.122-1.332-1.122-.9 0-1.44.408-1.44.984 0 .504.39.834 1.602 1.146 1.212.312 2.508.834 2.508 2.346-.006 1.098-.828 1.698-1.872 1.896V10.8z"></path></svg>