<?xml version="1.0" encoding="utf-8"?>
<!-- Generator: Adobe Illustrator 25.2.1, SVG Export Plug-In . SVG Version: 6.00 Build 0)  -->
<svg version="1.1" id="Capa_1" xmlns="http://www.w3.org/2000/svg" xmlns:xlink="http://www.w3.org/1999/xlink" x="0px" y="0px"
	 viewBox="0 0 45 45" style="enable-background:new 0 0 45 45;" xml:space="preserve">

<g>
	<path d="M4.9,23.5L4.9,23.5C4.9,23.5,4.9,23.5,4.9,23.5C5,23.6,5,23.6,5.1,23.6c0.1,0,0.1,0,0.2,0l7.5-3.3c0.1-0.1,0.2-0.2,0.2-0.3
		s-0.1-0.2-0.2-0.3l-2.1-0.8l-1-0.4l0.4-1c2.1-5,7-8.2,12.4-8.2c5.4,0,10.3,3.3,12.5,8.3c0.4,1,1.3,1.6,2.4,1.6c0.2,0,0.4,0,0.5,0
		l0.1,0h0.1h0.2c0.7-0.2,1.4-0.6,1.7-1.3c0.3-0.5,0.5-1.3,0.1-2.2l0,0l0,0C37.2,8.6,30.3,4,22.6,4C14.8,4,8,8.6,5.1,15.7l-0.4,0.9
		l-0.9-0.4l-1.9-0.8c0,0-0.1,0-0.1,0c0,0-0.1,0-0.2,0.1c-0.1,0.1-0.1,0.2-0.1,0.3L4.9,23.5L4.9,23.5z"/>
	<path d="M1.8,14.4C1.8,14.4,1.8,14.4,1.8,14.4C1.8,14.4,1.8,14.4,1.8,14.4C1.8,14.4,1.8,14.4,1.8,14.4z"/>
	<path d="M1.6,15.5c0.1-0.1,0.2-0.1,0.2-0.1c0,0,0.1,0,0.1,0l1.9,0.8l0.9,0.4l0.4-0.9C8,8.6,14.8,4,22.6,4c7.7,0,14.6,4.6,17.6,11.7
		l0,0l0,0c0.4,0.8,0.2,1.7-0.1,2.2c-0.4,0.7-1,1.1-1.7,1.3h-0.2h-0.1l-0.1,0c-0.2,0-0.4,0-0.5,0c-1.1,0-2-0.6-2.4-1.6
		c-2.2-5-7.1-8.3-12.5-8.3c-5.4,0-10.3,3.2-12.4,8.2l-0.4,1l1,0.4l2.1,0.8c0.1,0,0.2,0.2,0.2,0.3s-0.1,0.2-0.2,0.3l-7.5,3.3
		c0,0-0.1,0-0.2,0c-0.1,0-0.1,0-0.2,0c0,0,0,0-0.1,0l0-0.1l0-0.1l-3.3-7.6C1.5,15.7,1.5,15.6,1.6,15.5z"/>
	<path d="M40.2,23.4L40.2,23.4L40.2,23.4c0-0.1-0.1-0.1-0.1-0.1c0,0-0.1,0-0.2,0c-0.1,0-0.1,0-0.2,0l-7.5,3.3
		c-0.1,0.1-0.2,0.2-0.2,0.3s0.1,0.2,0.2,0.3l2.1,0.8l1,0.4l-0.4,1c-2.1,5-7,8.2-12.4,8.2c-5.4,0-10.3-3.3-12.5-8.3
		c-0.4-1-1.3-1.6-2.4-1.6c-0.2,0-0.4,0-0.5,0l-0.1,0H6.8H6.6c-0.7,0.2-1.4,0.6-1.7,1.3c-0.3,0.5-0.5,1.3-0.1,2.2l0,0l0,0
		c2.9,7,9.9,11.7,17.5,11.7c7.7,0,14.6-4.6,17.5-11.7l0.4-0.9l0.9,0.4l1.9,0.8c0,0,0.1,0,0.1,0c0,0,0.1,0,0.2-0.1
		c0.1-0.1,0.1-0.2,0.1-0.3L40.2,23.4z"/>
	<path d="M43.1,32.4C43.1,32.4,43.1,32.4,43.1,32.4C43.1,32.4,43.1,32.4,43.1,32.4C43.1,32.4,43.1,32.4,43.1,32.4z"/>
</g>
</svg>
